<svg width="1107.9575439453124px" height="155.617578125px" xmlns="http://www.w3.org/2000/svg" viewBox="-303.9787719726562 -2.808789062499997 1107.9575439453124 155.617578125" style="background: none;" preserveAspectRatio="xMidYMid"><defs><linearGradient id="editing-glowing-gradient" x1="0.36218132209150045" x2="0.6378186779084996" y1="0.019369152030840553" y2="0.9806308479691594"><stop offset="0" stop-color="#8cffff"></stop><stop offset="1" stop-color="#82d1ff"></stop></linearGradient><filter id="editing-glowing" x="-100%" y="-100%" width="300%" height="300%"><feGaussianBlur in="SourceGraphic" result="blur" stdDeviation="7.5"></feGaussianBlur><feMerge><feMergeNode in="blur"></feMergeNode><feMergeNode in="SourceGraphic"></feMergeNode></feMerge></filter></defs><g filter="url(#editing-glowing)"><g transform="translate(-143.75, 118.75)"><path d="M75-12.50L0-12.50L0-100L75-100L75-87.50L87.50-87.50L87.50-62.50L75-62.50L75-50L87.50-50L87.50-25L75-25L75-12.50ZM25-87.50L25-62.50L62.50-62.50L62.50-87.50L25-87.50ZM25-50L25-25L62.50-25L62.50-50L25-50ZM162.50-87.50L137.50-87.50L137.50-100L162.50-100L162.50-87.50ZM187.50-12.50L112.50-12.50L112.50-25L137.50-25L137.50-62.50L125-62.50L125-75L162.50-75L162.50-25L187.50-25L187.50-12.50ZM262.50-12.50L237.50-12.50L237.50-62.50L212.50-62.50L212.50-75L237.50-75L237.50-100L262.50-100L262.50-75L287.50-75L287.50-62.50L262.50-62.50L262.50-12.50ZM375-12.50L300-12.50L300-100L375-100L375-87.50L387.50-87.50L387.50-62.50L375-62.50L375-50L387.50-50L387.50-25L375-25L375-12.50ZM325-87.50L325-62.50L362.50-62.50L362.50-87.50L325-87.50ZM325-50L325-25L362.50-25L362.50-50L325-50ZM475-12.50L412.50-12.50L412.50-25L400-25L400-62.50L412.50-62.50L412.50-75L475-75L475-62.50L487.50-62.50L487.50-25L475-25L475-12.50ZM425-62.50L425-25L462.50-25L462.50-62.50L425-62.50ZM587.50-12.50L512.50-12.50L512.50-25L500-25L500-37.50L512.50-37.50L512.50-50L562.50-50L562.50-62.50L512.50-62.50L512.50-75L575-75L575-62.50L587.50-62.50L587.50-12.50ZM525-37.50L525-25L562.50-25L562.50-37.50L525-37.50ZM637.50-75L637.50-62.50L650-62.50L650-50L637.50-50L637.50-12.50L612.50-12.50L612.50-75L637.50-75ZM650-75L687.50-75L687.50-62.50L650-62.50L650-75ZM787.50-12.50L712.50-12.50L712.50-25L700-25L700-62.50L712.50-62.50L712.50-75L762.50-75L762.50-100L787.50-100L787.50-12.50ZM725-62.50L725-25L762.50-25L762.50-62.50L725-62.50Z" fill="url(#editing-glowing-gradient)"></path></g></g><style>text {
  font-size: 64px;
  font-family: Arial Black;
  dominant-baseline: central;
  text-anchor: middle;
}</style></svg>