<svg width="509.62116699218745px" height="202.4099609375px" xmlns="http://www.w3.org/2000/svg" viewBox="-4.810583496093727 -26.204980468749994 509.62116699218745 202.4099609375" style="background: rgba(147, 219, 233, 0);" preserveAspectRatio="xMidYMid"><defs><linearGradient id="editing-glowing-gradient" x1="0.26526421860705457" x2="0.7347357813929454" y1="0.05852620357053656" y2="0.9414737964294635"><stop offset="0" stop-color="#4cf2ff"></stop><stop offset="1" stop-color="#2fffb2"></stop></linearGradient><filter id="editing-glowing" x="-100%" y="-100%" width="300%" height="300%"><feGaussianBlur in="SourceGraphic" result="blur" stdDeviation="7.5"></feGaussianBlur><feMerge><feMergeNode in="blur"></feMergeNode><feMergeNode in="SourceGraphic"></feMergeNode></feMerge></filter></defs><g filter="url(#editing-glowing)"><g transform="translate(71.10469055175781, 126.5)"><path d="M25.70-47.10L25.70-47.10L25.70-47.10Q21.70-37.30 21.70-28.85L21.70-28.85L21.70-28.85Q21.70-20.40 25.15-16.40L25.15-16.40L25.15-16.40Q28.60-12.40 36.30-12.40L36.30-12.40L36.30-12.40Q40.90-12.40 44.40-15.70L44.40-15.70L44.40-15.70Q45.50-23.90 46.20-26.60L46.20-26.60L46.20-26.60Q47.90-33.20 51.40-33.20L51.40-33.20L51.40-33.20Q54.20-33.20 56.70-29.35L56.70-29.35L56.70-29.35Q59.20-25.50 59.10-22.80L59.10-22.80L59.10-22.80Q59.10-18.30 55.50-6.10L55.50-6.10L55.50-6.10Q62.50-11.40 71.60-21.80L71.60-21.80L71.60-21.80Q72.90-23.30 73.80-23.30L73.80-23.30L73.80-23.30Q75.20-23.30 75.20-20L75.20-20L75.20-20Q75.20-13.60 68.80-6.35L68.80-6.35L68.80-6.35Q62.40 0.90 51.80 5.20L51.80 5.20L51.80 5.20Q51 7.10 50.50 8.80L50.50 8.80L50.50 8.80Q50 10.50 49.20 12.90L49.20 12.90L49.20 12.90Q48.40 15.30 46.40 18.15L46.40 18.15L46.40 18.15Q44.40 21 41.40 23L41.40 23L41.40 23Q35 27.40 26.75 27.40L26.75 27.40L26.75 27.40Q18.50 27.40 12.95 23.75L12.95 23.75L12.95 23.75Q7.40 20.10 7.40 13.70L7.40 13.70L7.40 13.70Q7.40 10.60 10.40 8.60L10.40 8.60L10.40 8.60Q13.40 6.60 18.20 5.15L18.20 5.15L18.20 5.15Q23 3.70 29 2.60L29 2.60L29 2.60Q35 1.50 41 0.10L41 0.10L41 0.10Q41.80-2.20 42.20-4.20L42.20-4.20L42.20-4.20Q38.30-1.20 32.60-1.20L32.60-1.20L32.60-1.20Q20.70-1.20 13.90-6.10L13.90-6.10L13.90-6.10Q6-11.80 6-23.90L6-23.90L6-23.90Q6-39.70 14-53.90L14-53.90L14-53.90Q11.60-56.70 10.10-59.75L10.10-59.75L10.10-59.75Q8.60-62.80 8.60-64.40L8.60-64.40L8.60-64.40Q8.60-67.20 10.60-67.10L10.60-67.10L10.60-67.10Q11.90-67.10 13.60-65.50L13.60-65.50L13.60-65.50Q15.30-63.90 16.35-62.80L16.35-62.80L16.35-62.80Q17.40-61.70 18.60-60.80L18.60-60.80L18.60-60.80Q23.80-67.40 30.80-71.50L30.80-71.50L30.80-71.50Q37.80-75.60 46.20-75.60L46.20-75.60L46.20-75.60Q54.60-75.60 59.30-72.50L59.30-72.50L59.30-72.50Q64-69.40 64-61.70L64-61.70L64-61.70Q64-54 58.05-48.90L58.05-48.90L58.05-48.90Q52.10-43.80 41.50-43.80L41.50-43.80L41.50-43.80Q34.20-43.80 25.70-47.10ZM29-53.90L29-53.90L29-53.90Q34.50-51.50 42.30-51.50L42.30-51.50L42.30-51.50Q47.10-51.50 50-54.10L50-54.10L50-54.10Q52.90-56.70 52.90-59.75L52.90-59.75L52.90-59.75Q52.90-62.80 50.95-64.25L50.95-64.25L50.95-64.25Q49-65.70 45.80-65.70L45.80-65.70L45.80-65.70Q36.20-65.70 29-53.90ZM25.60 19.70L25.60 19.70L25.60 19.70Q32.40 19.70 37.50 9.50L37.50 9.50L37.50 9.50Q32 10.90 28.20 11.70L28.20 11.70L28.20 11.70Q24.40 12.50 22.05 13.10L22.05 13.10L22.05 13.10Q19.70 13.70 18.65 14.30L18.65 14.30L18.65 14.30Q17.60 14.90 17.60 16L17.60 16L17.60 16Q17.60 17.90 20.15 18.75L20.15 18.75L20.15 18.75Q22.70 19.60 25.60 19.70ZM110.60-8.50L110.60-8.50L110.60-8.50Q102.70 0.80 91.65 0.80L91.65 0.80L91.65 0.80Q80.60 0.80 75.10-4.85L75.10-4.85L75.10-4.85Q69.60-10.50 69.70-18.90L69.70-18.90L69.70-18.90Q69.60-30.80 77.20-39.40L77.20-39.40L77.20-39.40Q84.80-48 97.10-48L97.10-48L97.10-48Q102.70-48 106.10-46.60L106.10-46.60L106.10-46.60Q112-44.20 112-42.10L112-42.10L112-42.10Q112-40.50 103.75-40.45L103.75-40.45L103.75-40.45Q95.50-40.40 89.95-34.75L89.95-34.75L89.95-34.75Q84.40-29.10 84.40-20.50L84.40-20.50L84.40-20.50Q84.40-16 87.05-12.95L87.05-12.95L87.05-12.95Q89.70-9.90 94.55-9.90L94.55-9.90L94.55-9.90Q99.40-9.90 102.60-11.90L102.60-11.90L102.60-11.90Q95.50-16.70 95.50-25.80L95.50-25.80L95.50-25.80Q95.40-30.60 98.95-34.55L98.95-34.55L98.95-34.55Q102.50-38.50 108.05-38.55L108.05-38.55L108.05-38.55Q113.60-38.60 116-35.50L116-35.50L116-35.50Q118.40-32.40 118.40-27.55L118.40-27.55L118.40-27.55Q118.40-22.70 116.10-17.30L116.10-17.30L116.70-17.30L116.70-17.30Q121.10-17.40 124.30-20.40L124.30-20.40L124.30-20.40Q125.50-21.60 126.35-22.50L126.35-22.50L126.35-22.50Q127.20-23.40 128.10-23.40L128.10-23.40L128.10-23.40Q129.50-23.40 129.50-20.10L129.50-20.10L129.50-20.10Q129.50-14 125.90-10.95L125.90-10.95L125.90-10.95Q122.30-7.90 117.95-7.90L117.95-7.90L117.95-7.90Q113.60-7.90 110.60-8.50ZM109.70-20.10L109.70-20.10L109.70-20.10Q111.40-23.70 111.40-27.10L111.40-27.10L111.40-27.10Q111.40-30.50 109.20-30.50L109.20-30.50L109.20-30.50Q108.30-30.50 107.70-29.20L107.70-29.20L107.70-29.20Q107.10-27.90 107.10-26.70L107.10-26.70L107.10-26.70Q107.10-22.70 109.70-20.10ZM162.30-35.10L162.30-35.10L162.30-35.10Q152.60-35.10 152.80-40L152.80-40L152.80-40Q152.80-44.60 162.10-44.60L162.10-44.60L162.10-44.60Q164.30-44.60 166.30-44.10L166.30-44.10L166.30-44.10Q169.60-47.40 169.60-54.10L169.60-54.10L169.60-54.10Q169.60-65.70 154.10-65.70L154.10-65.70L154.10-65.70Q146-65.70 138.70-62.20L138.70-62.20L138.70-62.20Q136-60.90 133.85-59.80L133.85-59.80L133.85-59.80Q131.70-58.70 129.90-58.70L129.90-58.70L129.90-58.70Q128.10-58.70 128.10-59.80L128.10-59.80L128.10-59.80Q128.10-61.10 130.10-63.65L130.10-63.65L130.10-63.65Q132.10-66.20 135.70-68.80L135.70-68.80L135.70-68.80Q144.90-75.20 156.60-75.30L156.60-75.30L156.60-75.30Q171.90-75.30 179.10-69.20L179.10-69.20L179.10-69.20Q185.30-64.10 185.30-55.30L185.30-55.30L185.30-55.30Q185.30-45.10 175.30-39.70L175.30-39.70L175.30-39.70Q184.90-34.20 186.70-26.20L186.70-26.20L186.70-26.20Q187.30-23.40 187.30-18.80L187.30-18.80L187.30-18.80Q187.30-14.20 184.80-10.10L184.80-10.10L184.80-10.10Q182.30-6 178.10-3.20L178.10-3.20L178.10-3.20Q169.70 2.20 156.60 2.20L156.60 2.20L156.60 2.20Q147.30 2.20 135.90-2L135.90-2L135.90-2Q128.30-4.80 124.70-8.70L124.70-8.70L124.70-8.70Q122.90-10.60 122.95-12.50L122.95-12.50L122.95-12.50Q123-14.40 124.85-14.40L124.85-14.40L124.85-14.40Q126.70-14.40 131.90-13.10L131.90-13.10L131.90-13.20L131.90-13.20Q131.90-21 133.70-29.20L133.70-29.20L133.70-29.20Q136.80-43.50 140.90-51.60L140.90-51.60L140.90-51.60Q145.30-60.60 150-60.60L150-60.60L150-60.60Q151.30-60.60 151.30-56.10L151.30-56.10L151.30-56.10Q151.30-51.60 150.45-46.90L150.45-46.90L150.45-46.90Q149.60-42.20 148.65-37.65L148.65-37.65L148.65-37.65Q147.70-33.10 146.85-29.40L146.85-29.40L146.85-29.40Q146-25.70 146-24.10L146-24.10L145-9L145-9Q150.90-7.40 155-7.40L155-7.40L155-7.40Q159.10-7.40 162.40-8.80L162.40-8.80L162.40-8.80Q170.70-12.30 170.70-21L170.70-21L170.70-21Q170.70-26.20 169.70-29.60L169.70-29.60L169.70-29.60Q168.70-33 166.10-35.60L166.10-35.60L166.10-35.60Q163.80-35.10 162.30-35.10ZM235.70-8.50L235.70-8.50L235.70-8.50Q227.80 0.80 216.75 0.80L216.75 0.80L216.75 0.80Q205.70 0.80 200.20-4.85L200.20-4.85L200.20-4.85Q194.70-10.50 194.80-18.90L194.80-18.90L194.80-18.90Q194.70-30.80 202.30-39.40L202.30-39.40L202.30-39.40Q209.90-48 222.20-48L222.20-48L222.20-48Q227.80-48 231.20-46.60L231.20-46.60L231.20-46.60Q237.10-44.20 237.10-42.10L237.10-42.10L237.10-42.10Q237.10-40.50 228.85-40.45L228.85-40.45L228.85-40.45Q220.60-40.40 215.05-34.75L215.05-34.75L215.05-34.75Q209.50-29.10 209.50-20.50L209.50-20.50L209.50-20.50Q209.50-16 212.15-12.95L212.15-12.95L212.15-12.95Q214.80-9.90 219.65-9.90L219.65-9.90L219.65-9.90Q224.50-9.90 227.70-11.90L227.70-11.90L227.70-11.90Q220.60-16.70 220.60-25.80L220.60-25.80L220.60-25.80Q220.50-30.60 224.05-34.55L224.05-34.55L224.05-34.55Q227.60-38.50 233.15-38.55L233.15-38.55L233.15-38.55Q238.70-38.60 241.10-35.50L241.10-35.50L241.10-35.50Q243.50-32.40 243.50-27.55L243.50-27.55L243.50-27.55Q243.50-22.70 241.20-17.30L241.20-17.30L241.80-17.30L241.80-17.30Q246.20-17.40 249.40-20.40L249.40-20.40L249.40-20.40Q250.60-21.60 251.45-22.50L251.45-22.50L251.45-22.50Q252.30-23.40 253.20-23.40L253.20-23.40L253.20-23.40Q254.60-23.40 254.60-20.10L254.60-20.10L254.60-20.10Q254.60-14 251-10.95L251-10.95L251-10.95Q247.40-7.90 243.05-7.90L243.05-7.90L243.05-7.90Q238.70-7.90 235.70-8.50ZM234.80-20.10L234.80-20.10L234.80-20.10Q236.50-23.70 236.50-27.10L236.50-27.10L236.50-27.10Q236.50-30.50 234.30-30.50L234.30-30.50L234.30-30.50Q233.40-30.50 232.80-29.20L232.80-29.20L232.80-29.20Q232.20-27.90 232.20-26.70L232.20-26.70L232.20-26.70Q232.20-22.70 234.80-20.10ZM290-8.50L290-8.50L290-8.50Q282.10 0.80 271.05 0.80L271.05 0.80L271.05 0.80Q260 0.80 254.50-4.85L254.50-4.85L254.50-4.85Q249.00-10.50 249.10-18.90L249.10-18.90L249.10-18.90Q249.00-30.80 256.60-39.40L256.60-39.40L256.60-39.40Q264.20-48 276.50-48L276.50-48L276.50-48Q282.10-48 285.50-46.60L285.50-46.60L285.50-46.60Q291.40-44.20 291.40-42.10L291.40-42.10L291.40-42.10Q291.40-40.50 283.15-40.45L283.15-40.45L283.15-40.45Q274.90-40.40 269.35-34.75L269.35-34.75L269.35-34.75Q263.80-29.10 263.80-20.50L263.80-20.50L263.80-20.50Q263.80-16 266.45-12.95L266.45-12.95L266.45-12.95Q269.10-9.90 273.95-9.90L273.95-9.90L273.95-9.90Q278.80-9.90 282-11.90L282-11.90L282-11.90Q274.90-16.70 274.90-25.80L274.90-25.80L274.90-25.80Q274.80-30.60 278.35-34.55L278.35-34.55L278.35-34.55Q281.90-38.50 287.45-38.55L287.45-38.55L287.45-38.55Q293-38.60 295.40-35.50L295.40-35.50L295.40-35.50Q297.80-32.40 297.80-27.55L297.80-27.55L297.80-27.55Q297.80-22.70 295.50-17.30L295.50-17.30L296.10-17.30L296.10-17.30Q300.50-17.40 303.70-20.40L303.70-20.40L303.70-20.40Q304.90-21.60 305.75-22.50L305.75-22.50L305.75-22.50Q306.60-23.40 307.50-23.40L307.50-23.40L307.50-23.40Q308.90-23.40 308.90-20.10L308.90-20.10L308.90-20.10Q308.90-14 305.30-10.95L305.30-10.95L305.30-10.95Q301.70-7.90 297.35-7.90L297.35-7.90L297.35-7.90Q293-7.90 290-8.50ZM289.10-20.10L289.10-20.10L289.10-20.10Q290.80-23.70 290.80-27.10L290.80-27.10L290.80-27.10Q290.80-30.50 288.60-30.50L288.60-30.50L288.60-30.50Q287.70-30.50 287.10-29.20L287.10-29.20L287.10-29.20Q286.50-27.90 286.50-26.70L286.50-26.70L286.50-26.70Q286.50-22.70 289.10-20.10ZM333.10-21.90L333.10-21.90L333.10-21.90Q335.80-11.20 342.20-11.20L342.20-11.20L342.20-11.20Q345.30-11.20 347.80-13.10L347.80-13.10L347.80-13.10Q350.30-15 352.30-17.25L352.30-17.25L352.30-17.25Q354.30-19.50 355.80-21.40L355.80-21.40L355.80-21.40Q357.30-23.30 358.60-23.30L358.60-23.30L358.60-23.30Q359.90-23.30 359.90-19.90L359.90-19.90L359.90-19.90Q359.90-12.80 353.30-6.20L353.30-6.20L353.30-6.20Q346.70 0.40 338.55 0.35L338.55 0.35L338.55 0.35Q330.40 0.30 324.00-14L324.00-14L324.00-14Q322.20-18 320.60-22.10L320.60-22.10L319.90-8.40L319.90-8.40Q319.90-6.50 319.70-4.65L319.70-4.65L319.70-4.65Q319.50-2.80 318.00-1.60L318.00-1.60L318.00-1.60Q314.10 1.50 310.10 1.50L310.10 1.50L310.10 1.50Q305.40 1.50 305.40-8.20L305.40-8.20L305.40-8.20Q305.40-22.20 308.70-37.50L308.70-37.50L308.70-37.50Q312.00-52.80 315.15-60.55L315.15-60.55L315.15-60.55Q318.30-68.30 320.05-70.90L320.05-70.90L320.05-70.90Q321.80-73.50 322.80-74.10L322.80-74.10L322.80-74.10Q323.80-74.70 325.05-74.70L325.05-74.70L325.05-74.70Q326.30-74.70 327.70-73.45L327.70-73.45L327.70-73.45Q329.10-72.20 330.70-69.65L330.70-69.65L330.70-69.65Q332.30-67.10 332.35-64.65L332.35-64.65L332.35-64.65Q332.40-62.20 331.55-59.85L331.55-59.85L331.55-59.85Q330.70-57.50 329.30-55.25L329.30-55.25L329.30-55.25Q327.90-53 326.20-50.65L326.20-50.65L326.20-50.65Q324.50-48.30 322.80-45.60L322.80-45.60L321.80-37.20L321.80-37.20Q325.30-44.50 332.10-47L332.10-47L332.10-47Q334.50-47.90 337.70-47.90L337.70-47.90L337.70-47.90Q344.10-47.90 347.50-44.85L347.50-44.85L347.50-44.85Q350.90-41.80 350.90-35.90L350.90-35.90L350.90-35.90Q350.90-30 345.00-25.90L345.00-25.90L345.00-25.90Q339.10-21.80 333.10-21.90ZM336.90-33.60L336.90-33.60L336.90-33.60Q336.90-37.20 332.80-37.20L332.80-37.20L332.80-37.20Q328.70-37.20 323.90-29.30L323.90-29.30L323.90-29.30Q322.50-27 321.50-24.60L321.50-24.60L321.50-24.60Q331.90-25.20 335.70-30.20L335.70-30.20L335.70-30.20Q336.90-31.80 336.90-33.60Z" fill="url(#editing-glowing-gradient)"></path></g></g><style>text {
  font-size: 64px;
  font-family: Arial Black;
  dominant-baseline: central;
  text-anchor: middle;
}</style></svg>